<svg width="263" height="285" viewBox="0 0 263 285" fill="none" xmlns="http://www.w3.org/2000/svg">
<rect width="263" height="285" rx="24" fill="white"/>
<path d="M60.6477 210V191.542H66.8708C68.1013 191.542 69.1825 191.788 70.1142 192.28C71.0635 192.755 71.8018 193.423 72.3292 194.284C72.8741 195.128 73.1466 196.112 73.1466 197.237C73.1466 198.345 72.8565 199.329 72.2764 200.191C71.7139 201.052 70.9404 201.729 69.956 202.221C68.9715 202.696 67.864 202.933 66.6335 202.933H63.2319V210H60.6477ZM70.958 210L66.5807 202.458L68.6375 201.087L73.8849 210H70.958ZM63.2319 200.56H67.1081C67.741 200.56 68.3035 200.419 68.7957 200.138C69.3055 199.839 69.7099 199.444 70.0087 198.951C70.3251 198.442 70.4833 197.87 70.4833 197.237C70.4833 196.253 70.1405 195.453 69.455 194.838C68.7694 194.223 67.8816 193.915 66.7917 193.915H63.2319V200.56ZM76.8345 210V196.816H79.3396V210H76.8345ZM78.1003 194.02C77.6959 194.02 77.3443 193.871 77.0455 193.572C76.7466 193.256 76.5972 192.895 76.5972 192.491C76.5972 192.069 76.7466 191.718 77.0455 191.436C77.3443 191.137 77.6959 190.988 78.1003 190.988C78.5222 190.988 78.8737 191.137 79.155 191.436C79.4539 191.718 79.6033 192.069 79.6033 192.491C79.6033 192.895 79.4539 193.256 79.155 193.572C78.8737 193.871 78.5222 194.02 78.1003 194.02ZM87.7311 210.316C86.7994 210.316 85.9644 210.176 85.226 209.895C84.5053 209.613 83.89 209.235 83.3802 208.761C82.888 208.286 82.5188 207.75 82.2727 207.152L84.435 206.203C84.7162 206.748 85.1381 207.196 85.7007 207.548C86.2632 207.899 86.8873 208.075 87.5729 208.075C88.3288 208.075 88.9529 207.934 89.4451 207.653C89.9373 207.372 90.1834 206.976 90.1834 206.467C90.1834 205.974 89.9988 205.588 89.6297 205.306C89.2605 205.025 88.7243 204.797 88.0212 204.621L86.7818 204.304C85.5513 203.97 84.5932 203.469 83.9076 202.801C83.2396 202.133 82.9056 201.377 82.9056 200.534C82.9056 199.25 83.3187 198.257 84.1449 197.554C84.9711 196.851 86.1929 196.499 87.8102 196.499C88.6013 196.499 89.322 196.613 89.9725 196.842C90.6405 197.07 91.203 197.396 91.6601 197.818C92.1347 198.239 92.4687 198.74 92.6621 199.321L90.5526 200.27C90.3416 199.742 89.9812 199.356 89.4714 199.11C88.9616 198.846 88.3639 198.714 87.6784 198.714C86.9752 198.714 86.4214 198.872 86.0171 199.189C85.6128 199.488 85.4106 199.909 85.4106 200.454C85.4106 200.753 85.5776 201.043 85.9116 201.325C86.2632 201.588 86.773 201.808 87.441 201.984L88.865 202.327C89.7263 202.538 90.4383 202.863 91.0008 203.302C91.5634 203.724 91.9853 204.208 92.2666 204.753C92.5478 205.28 92.6885 205.834 92.6885 206.414C92.6885 207.205 92.4687 207.899 92.0292 208.497C91.6073 209.077 91.0184 209.525 90.2625 209.842C89.5242 210.158 88.6804 210.316 87.7311 210.316ZM95.4525 210V196.816H97.9575V210H95.4525ZM96.7182 194.02C96.3138 194.02 95.9623 193.871 95.6634 193.572C95.3646 193.256 95.2151 192.895 95.2151 192.491C95.2151 192.069 95.3646 191.718 95.6634 191.436C95.9623 191.137 96.3138 190.988 96.7182 190.988C97.1401 190.988 97.4917 191.137 97.7729 191.436C98.0718 191.718 98.2212 192.069 98.2212 192.491C98.2212 192.895 98.0718 193.256 97.7729 193.572C97.4917 193.871 97.1401 194.02 96.7182 194.02ZM101.629 210V196.816H103.976L104.134 199.241V210H101.629ZM110.753 210V203.25H113.258V210H110.753ZM110.753 203.25C110.753 202.054 110.612 201.149 110.331 200.534C110.067 199.901 109.689 199.461 109.197 199.215C108.722 198.969 108.168 198.837 107.536 198.82C106.463 198.82 105.628 199.198 105.031 199.953C104.433 200.709 104.134 201.773 104.134 203.144H103.053C103.053 201.755 103.255 200.569 103.659 199.584C104.081 198.582 104.67 197.818 105.426 197.29C106.2 196.763 107.114 196.499 108.168 196.499C109.206 196.499 110.102 196.71 110.858 197.132C111.632 197.554 112.22 198.213 112.625 199.11C113.047 199.989 113.258 201.149 113.258 202.59V203.25H110.753ZM121.868 215.617C120.989 215.617 120.19 215.529 119.469 215.353C118.748 215.195 118.142 215.01 117.649 214.799C117.157 214.588 116.788 214.404 116.542 214.245L117.491 212.215C117.72 212.356 118.045 212.514 118.467 212.69C118.889 212.883 119.381 213.041 119.943 213.164C120.506 213.305 121.13 213.375 121.816 213.375C122.624 213.375 123.345 213.208 123.978 212.874C124.611 212.558 125.103 212.057 125.455 211.371C125.824 210.686 126.008 209.807 126.008 208.734V196.816H128.513V208.682C128.513 210.193 128.223 211.459 127.643 212.479C127.081 213.516 126.298 214.298 125.296 214.826C124.312 215.353 123.169 215.617 121.868 215.617ZM121.631 209.815C120.436 209.815 119.39 209.543 118.493 208.998C117.614 208.435 116.92 207.662 116.41 206.678C115.918 205.675 115.672 204.524 115.672 203.223C115.672 201.87 115.918 200.692 116.41 199.69C116.92 198.688 117.614 197.905 118.493 197.343C119.39 196.78 120.436 196.499 121.631 196.499C122.721 196.499 123.67 196.78 124.479 197.343C125.305 197.905 125.938 198.697 126.377 199.716C126.835 200.718 127.063 201.896 127.063 203.25C127.063 204.55 126.835 205.702 126.377 206.704C125.938 207.688 125.305 208.453 124.479 208.998C123.67 209.543 122.721 209.815 121.631 209.815ZM122.264 207.706C123.002 207.706 123.644 207.513 124.189 207.126C124.734 206.721 125.164 206.185 125.481 205.517C125.797 204.832 125.956 204.049 125.956 203.17C125.956 202.291 125.797 201.518 125.481 200.85C125.164 200.182 124.725 199.663 124.162 199.294C123.617 198.907 122.976 198.714 122.238 198.714C121.464 198.714 120.778 198.907 120.181 199.294C119.601 199.663 119.144 200.182 118.81 200.85C118.476 201.518 118.309 202.291 118.309 203.17C118.309 204.049 118.476 204.832 118.81 205.517C119.161 206.185 119.627 206.721 120.207 207.126C120.805 207.513 121.49 207.706 122.264 207.706ZM146.891 210.316C145.134 210.316 143.569 209.912 142.198 209.103C140.827 208.277 139.754 207.152 138.981 205.728C138.207 204.287 137.821 202.634 137.821 200.771C137.821 198.907 138.207 197.264 138.981 195.84C139.754 194.398 140.818 193.273 142.171 192.465C143.525 191.638 145.081 191.225 146.839 191.225C147.981 191.225 149.071 191.436 150.108 191.858C151.146 192.262 152.069 192.834 152.877 193.572C153.703 194.293 154.336 195.137 154.776 196.104L152.455 197.158C152.121 196.438 151.664 195.814 151.084 195.286C150.504 194.759 149.845 194.346 149.106 194.047C148.386 193.748 147.63 193.599 146.839 193.599C145.608 193.599 144.509 193.906 143.543 194.521C142.576 195.137 141.82 195.981 141.275 197.053C140.73 198.125 140.457 199.365 140.457 200.771C140.457 202.177 140.73 203.425 141.275 204.515C141.837 205.605 142.602 206.458 143.569 207.073C144.553 207.671 145.67 207.97 146.918 207.97C147.726 207.97 148.491 207.811 149.212 207.495C149.933 207.161 150.574 206.713 151.137 206.15C151.717 205.57 152.183 204.911 152.534 204.172L154.855 205.201C154.415 206.203 153.791 207.091 152.983 207.864C152.174 208.638 151.242 209.244 150.188 209.684C149.15 210.105 148.052 210.316 146.891 210.316ZM163.416 210.316C162.098 210.316 160.938 210.026 159.936 209.446C158.934 208.849 158.143 208.031 157.562 206.994C157 205.957 156.719 204.761 156.719 203.408C156.719 202.054 157 200.859 157.562 199.822C158.125 198.784 158.907 197.976 159.909 197.396C160.911 196.798 162.063 196.499 163.364 196.499C164.664 196.499 165.816 196.798 166.818 197.396C167.82 197.976 168.602 198.784 169.165 199.822C169.727 200.859 170.009 202.054 170.009 203.408C170.009 204.761 169.727 205.957 169.165 206.994C168.602 208.031 167.82 208.849 166.818 209.446C165.833 210.026 164.7 210.316 163.416 210.316ZM163.416 208.022C164.207 208.022 164.911 207.829 165.526 207.442C166.141 207.038 166.616 206.493 166.95 205.807C167.301 205.122 167.477 204.322 167.477 203.408C167.477 202.494 167.301 201.694 166.95 201.008C166.616 200.323 166.132 199.786 165.499 199.4C164.867 198.995 164.155 198.793 163.364 198.793C162.555 198.793 161.843 198.995 161.228 199.4C160.612 199.786 160.129 200.323 159.777 201.008C159.426 201.694 159.25 202.494 159.25 203.408C159.25 204.322 159.426 205.122 159.777 205.807C160.129 206.493 160.621 207.038 161.254 207.442C161.887 207.829 162.608 208.022 163.416 208.022ZM177.473 210.316C176.541 210.316 175.706 210.176 174.968 209.895C174.247 209.613 173.632 209.235 173.122 208.761C172.63 208.286 172.261 207.75 172.015 207.152L174.177 206.203C174.458 206.748 174.88 207.196 175.443 207.548C176.005 207.899 176.629 208.075 177.315 208.075C178.071 208.075 178.695 207.934 179.187 207.653C179.679 207.372 179.925 206.976 179.925 206.467C179.925 205.974 179.741 205.588 179.372 205.306C179.002 205.025 178.466 204.797 177.763 204.621L176.524 204.304C175.293 203.97 174.335 203.469 173.65 202.801C172.982 202.133 172.648 201.377 172.648 200.534C172.648 199.25 173.061 198.257 173.887 197.554C174.713 196.851 175.935 196.499 177.552 196.499C178.343 196.499 179.064 196.613 179.714 196.842C180.382 197.07 180.945 197.396 181.402 197.818C181.877 198.239 182.211 198.74 182.404 199.321L180.294 200.27C180.084 199.742 179.723 199.356 179.213 199.11C178.704 198.846 178.106 198.714 177.42 198.714C176.717 198.714 176.163 198.872 175.759 199.189C175.355 199.488 175.153 199.909 175.153 200.454C175.153 200.753 175.32 201.043 175.654 201.325C176.005 201.588 176.515 201.808 177.183 201.984L178.607 202.327C179.468 202.538 180.18 202.863 180.743 203.302C181.305 203.724 181.727 204.208 182.008 204.753C182.29 205.28 182.43 205.834 182.43 206.414C182.43 207.205 182.211 207.899 181.771 208.497C181.349 209.077 180.76 209.525 180.004 209.842C179.266 210.158 178.422 210.316 177.473 210.316ZM190.125 210.316C188.807 210.316 187.787 209.982 187.067 209.314C186.346 208.629 185.985 207.653 185.985 206.387V192.702H188.49V206.018C188.49 206.669 188.649 207.17 188.965 207.521C189.299 207.855 189.774 208.022 190.389 208.022C190.565 208.022 190.758 207.987 190.969 207.917C191.18 207.847 191.435 207.706 191.734 207.495L192.683 209.446C192.226 209.745 191.787 209.965 191.365 210.105C190.96 210.246 190.547 210.316 190.125 210.316ZM183.744 198.978V196.816H192.235V198.978H183.744ZM199.876 210.316C198.945 210.316 198.11 210.176 197.371 209.895C196.651 209.613 196.035 209.235 195.525 208.761C195.033 208.286 194.664 207.75 194.418 207.152L196.58 206.203C196.861 206.748 197.283 207.196 197.846 207.548C198.408 207.899 199.033 208.075 199.718 208.075C200.474 208.075 201.098 207.934 201.59 207.653C202.083 207.372 202.329 206.976 202.329 206.467C202.329 205.974 202.144 205.588 201.775 205.306C201.406 205.025 200.87 204.797 200.166 204.621L198.927 204.304C197.696 203.97 196.738 203.469 196.053 202.801C195.385 202.133 195.051 201.377 195.051 200.534C195.051 199.25 195.464 198.257 196.29 197.554C197.116 196.851 198.338 196.499 199.955 196.499C200.746 196.499 201.467 196.613 202.118 196.842C202.786 197.07 203.348 197.396 203.805 197.818C204.28 198.239 204.614 198.74 204.807 199.321L202.698 200.27C202.487 199.742 202.126 199.356 201.617 199.11C201.107 198.846 200.509 198.714 199.824 198.714C199.12 198.714 198.567 198.872 198.162 199.189C197.758 199.488 197.556 199.909 197.556 200.454C197.556 200.753 197.723 201.043 198.057 201.325C198.408 201.588 198.918 201.808 199.586 201.984L201.01 202.327C201.872 202.538 202.584 202.863 203.146 203.302C203.709 203.724 204.131 204.208 204.412 204.753C204.693 205.28 204.834 205.834 204.834 206.414C204.834 207.205 204.614 207.899 204.174 208.497C203.753 209.077 203.164 209.525 202.408 209.842C201.669 210.158 200.826 210.316 199.876 210.316Z" fill="#334897"/>
<path d="M167.777 93.277C171 90.054 171 84.873 171 74.5C171 64.127 171 58.946 167.777 55.723M167.777 93.277C164.554 96.5 159.373 96.5 149 96.5H127C116.627 96.5 111.446 96.5 108.223 93.277M167.777 55.723C164.554 52.5 159.373 52.5 149 52.5H127C116.627 52.5 111.446 52.5 108.223 55.723M108.223 55.723C105 58.946 105 64.127 105 74.5C105 84.873 105 90.054 108.223 93.277M143.5 74.5C143.5 75.9587 142.921 77.3576 141.889 78.3891C140.858 79.4205 139.459 80 138 80C136.541 80 135.142 79.4205 134.111 78.3891C133.079 77.3576 132.5 75.9587 132.5 74.5C132.5 73.0413 133.079 71.6424 134.111 70.6109C135.142 69.5795 136.541 69 138 69C139.459 69 140.858 69.5795 141.889 70.6109C142.921 71.6424 143.5 73.0413 143.5 74.5Z" stroke="#334897" stroke-width="4.5"/>
<path d="M171 69C166.624 69 162.427 67.2616 159.333 64.1673C156.238 61.0729 154.5 56.8761 154.5 52.5M171 80C166.624 80 162.427 81.7384 159.333 84.8327C156.238 87.9271 154.5 92.1239 154.5 96.5M105 69C109.376 69 113.573 67.2616 116.667 64.1673C119.762 61.0729 121.5 56.8761 121.5 52.5M105 80C109.376 80 113.573 81.7384 116.667 84.8327C119.762 87.9271 121.5 92.1239 121.5 96.5M99.5 148.134H111.93C117.485 148.134 123.112 148.717 128.518 149.828C138.171 151.805 148.102 152.025 157.833 150.477C162.607 149.707 167.293 148.524 171.539 146.478C175.367 144.625 180.058 142.024 183.21 139.103C186.356 136.188 189.634 131.419 191.955 127.69C193.957 124.489 192.989 120.568 189.832 118.186C188.057 116.898 185.92 116.205 183.727 116.205C181.534 116.205 179.397 116.898 177.622 118.186L167.683 125.694C163.833 128.609 159.626 131.287 154.615 132.085C154.01 132.18 153.378 132.267 152.718 132.344M152.718 132.344L152.113 132.409M152.718 132.344C153.598 132.105 154.405 131.651 155.066 131.024C155.897 130.307 156.575 129.432 157.06 128.449C157.546 127.466 157.83 126.396 157.894 125.301C157.959 124.207 157.803 123.111 157.436 122.078C157.07 121.044 156.5 120.095 155.76 119.286C155.043 118.491 154.208 117.81 153.285 117.268C137.901 108.088 113.959 115.079 99.5 125.337M152.718 132.344C152.519 132.388 152.316 132.41 152.113 132.409M152.113 132.409C148.796 132.742 145.454 132.749 142.136 132.432" stroke="#334897" stroke-width="4.5" stroke-linecap="round"/>
<path d="M99.5 121.25C99.5 116.694 95.8063 113 91.25 113C86.6937 113 83 116.694 83 121.25V148.75C83 153.306 86.6937 157 91.25 157C95.8063 157 99.5 153.306 99.5 148.75V121.25Z" stroke="#334897" stroke-width="4.5"/>
</svg>