<svg width="263" height="285" viewBox="0 0 263 285" fill="none" xmlns="http://www.w3.org/2000/svg">
<rect width="263" height="285" rx="24" fill="white"/>
<path d="M28.3475 210V191.542H30.9316V207.627H39.5016V210H28.3475ZM49.6645 210L49.559 207.706V203.118C49.559 202.151 49.4448 201.342 49.2162 200.692C49.0053 200.041 48.6713 199.549 48.2142 199.215C47.7747 198.881 47.1858 198.714 46.4475 198.714C45.7619 198.714 45.1642 198.855 44.6544 199.136C44.1622 199.417 43.7491 199.857 43.4151 200.454L41.2001 199.611C41.5165 199.013 41.912 198.486 42.3867 198.029C42.8613 197.554 43.4326 197.185 44.1007 196.921C44.7687 196.64 45.551 196.499 46.4475 196.499C47.6956 196.499 48.7328 196.745 49.559 197.237C50.3853 197.73 51.0005 198.442 51.4049 199.373C51.8268 200.305 52.0289 201.456 52.0113 202.828L51.985 210H49.6645ZM45.7883 210.316C44.2237 210.316 43.002 209.965 42.123 209.262C41.2616 208.541 40.8309 207.548 40.8309 206.282C40.8309 204.928 41.2792 203.9 42.1757 203.197C43.0899 202.476 44.3556 202.116 45.9729 202.116H49.6381V204.093H46.6584C45.4455 204.093 44.5929 204.287 44.1007 204.673C43.6084 205.043 43.3623 205.561 43.3623 206.229C43.3623 206.845 43.5909 207.328 44.0479 207.68C44.5226 208.014 45.173 208.181 45.9992 208.181C46.72 208.181 47.344 208.031 47.8714 207.732C48.3988 207.416 48.8119 206.976 49.1108 206.414C49.4096 205.851 49.559 205.21 49.559 204.489H50.4292C50.4292 206.282 50.0425 207.706 49.269 208.761C48.5131 209.798 47.3528 210.316 45.7883 210.316ZM55.1657 210V191.542H57.6708V207.548L57.5389 210H55.1657ZM61.9953 210.316C60.8878 210.316 59.9209 210.026 59.0947 209.446C58.2861 208.866 57.662 208.057 57.2225 207.02C56.783 205.983 56.5633 204.779 56.5633 203.408C56.5633 202.019 56.783 200.815 57.2225 199.795C57.662 198.758 58.2861 197.949 59.0947 197.369C59.9209 196.789 60.8878 196.499 61.9953 196.499C63.1731 196.499 64.2103 196.789 65.1068 197.369C66.0034 197.949 66.6977 198.758 67.19 199.795C67.6998 200.815 67.9547 202.019 67.9547 203.408C67.9547 204.779 67.6998 205.983 67.19 207.02C66.6977 208.057 66.0034 208.866 65.1068 209.446C64.2103 210.026 63.1731 210.316 61.9953 210.316ZM61.3888 208.049C62.1799 208.049 62.8742 207.855 63.4719 207.469C64.0696 207.064 64.5355 206.519 64.8695 205.834C65.2211 205.131 65.3969 204.322 65.3969 203.408C65.3969 202.494 65.2299 201.694 64.8959 201.008C64.5619 200.305 64.096 199.76 63.4983 199.373C62.9006 198.969 62.2062 198.767 61.4152 198.767C60.6944 198.767 60.044 198.969 59.4639 199.373C58.9013 199.76 58.4618 200.305 58.1454 201.008C57.829 201.711 57.6708 202.511 57.6708 203.408C57.6708 204.322 57.829 205.131 58.1454 205.834C58.4618 206.519 58.9013 207.064 59.4639 207.469C60.0264 207.855 60.668 208.049 61.3888 208.049ZM76.6529 210.316C75.3345 210.316 74.1742 210.026 73.1722 209.446C72.1702 208.849 71.3791 208.031 70.799 206.994C70.2365 205.957 69.9552 204.761 69.9552 203.408C69.9552 202.054 70.2365 200.859 70.799 199.822C71.3615 198.784 72.1438 197.976 73.1458 197.396C74.1479 196.798 75.2993 196.499 76.6002 196.499C77.901 196.499 79.0525 196.798 80.0545 197.396C81.0565 197.976 81.8388 198.784 82.4013 199.822C82.9639 200.859 83.2451 202.054 83.2451 203.408C83.2451 204.761 82.9639 205.957 82.4013 206.994C81.8388 208.031 81.0565 208.849 80.0545 209.446C79.0701 210.026 77.9362 210.316 76.6529 210.316ZM76.6529 208.022C77.444 208.022 78.1471 207.829 78.7624 207.442C79.3777 207.038 79.8523 206.493 80.1863 205.807C80.5379 205.122 80.7137 204.322 80.7137 203.408C80.7137 202.494 80.5379 201.694 80.1863 201.008C79.8523 200.323 79.3689 199.786 78.7361 199.4C78.1032 198.995 77.3912 198.793 76.6002 198.793C75.7915 198.793 75.0796 198.995 74.4643 199.4C73.849 199.786 73.3656 200.323 73.014 201.008C72.6624 201.694 72.4866 202.494 72.4866 203.408C72.4866 204.322 72.6624 205.122 73.014 205.807C73.3656 206.493 73.8578 207.038 74.4907 207.442C75.1235 207.829 75.8443 208.022 76.6529 208.022ZM94.955 210L94.7968 207.574V196.816H97.2755V210H94.955ZM85.6731 203.566V196.816H88.1782V203.566H85.6731ZM88.1782 203.566C88.1782 204.744 88.31 205.649 88.5737 206.282C88.855 206.915 89.2417 207.354 89.734 207.6C90.2262 207.847 90.7799 207.978 91.3952 207.996C92.4675 207.996 93.3026 207.618 93.9003 206.862C94.4979 206.106 94.7968 205.043 94.7968 203.671H95.8779C95.8779 205.06 95.667 206.256 95.2451 207.258C94.8407 208.242 94.2606 208.998 93.5047 209.525C92.7488 210.053 91.8259 210.316 90.736 210.316C89.7164 210.316 88.8198 210.105 88.0463 209.684C87.2904 209.262 86.7015 208.602 86.2796 207.706C85.8753 206.809 85.6731 205.649 85.6731 204.225V203.566H88.1782ZM102.3 202.907C102.3 201.483 102.572 200.323 103.117 199.426C103.662 198.53 104.366 197.862 105.227 197.422C106.088 196.983 106.994 196.763 107.943 196.763V199.136C107.152 199.136 106.396 199.259 105.675 199.505C104.972 199.734 104.392 200.12 103.935 200.665C103.495 201.193 103.276 201.914 103.276 202.828L102.3 202.907ZM100.771 210V196.816H103.276V210H100.771ZM122.967 210.316C121.983 210.316 121.086 210.202 120.278 209.974C119.487 209.745 118.792 209.437 118.194 209.051C117.614 208.646 117.131 208.198 116.744 207.706C116.357 207.214 116.085 206.695 115.927 206.15L118.432 205.333C118.695 206.053 119.196 206.678 119.935 207.205C120.673 207.732 121.578 208.005 122.651 208.022C123.952 208.022 124.971 207.767 125.71 207.258C126.466 206.73 126.843 206.036 126.843 205.174C126.843 204.383 126.518 203.742 125.868 203.25C125.217 202.74 124.356 202.353 123.284 202.089L121.148 201.536C120.304 201.307 119.531 200.982 118.827 200.56C118.142 200.138 117.597 199.602 117.192 198.951C116.788 198.301 116.586 197.519 116.586 196.605C116.586 194.917 117.131 193.599 118.221 192.649C119.328 191.7 120.919 191.225 122.994 191.225C124.189 191.225 125.226 191.419 126.105 191.805C126.984 192.175 127.705 192.667 128.267 193.282C128.848 193.897 129.261 194.574 129.507 195.313L127.002 196.156C126.703 195.365 126.193 194.732 125.472 194.258C124.752 193.766 123.864 193.519 122.809 193.519C121.702 193.519 120.823 193.783 120.172 194.31C119.539 194.838 119.223 195.559 119.223 196.473C119.223 197.246 119.469 197.844 119.961 198.266C120.471 198.67 121.148 198.978 121.992 199.189L124.127 199.716C125.85 200.138 127.177 200.841 128.109 201.826C129.058 202.792 129.533 203.856 129.533 205.016C129.533 206.018 129.278 206.924 128.768 207.732C128.276 208.523 127.538 209.156 126.553 209.631C125.587 210.088 124.391 210.316 122.967 210.316ZM132.574 210V191.542H135.052V210H132.574ZM141.697 210V203.25H144.176V210H141.697ZM141.697 203.25C141.697 202.054 141.557 201.149 141.275 200.534C140.994 199.901 140.607 199.461 140.115 199.215C139.64 198.969 139.095 198.837 138.48 198.82C137.39 198.82 136.546 199.198 135.949 199.953C135.351 200.709 135.052 201.773 135.052 203.144H133.997C133.997 201.755 134.2 200.569 134.604 199.584C135.026 198.582 135.615 197.818 136.371 197.29C137.144 196.763 138.058 196.499 139.113 196.499C140.15 196.499 141.047 196.71 141.803 197.132C142.559 197.554 143.148 198.213 143.569 199.11C143.991 199.989 144.193 201.149 144.176 202.59V203.25H141.697ZM153.288 210.316C151.969 210.316 150.809 210.026 149.807 209.446C148.805 208.849 148.014 208.031 147.434 206.994C146.871 205.957 146.59 204.761 146.59 203.408C146.59 202.054 146.871 200.859 147.434 199.822C147.996 198.784 148.779 197.976 149.781 197.396C150.783 196.798 151.934 196.499 153.235 196.499C154.536 196.499 155.687 196.798 156.689 197.396C157.691 197.976 158.474 198.784 159.036 199.822C159.599 200.859 159.88 202.054 159.88 203.408C159.88 204.761 159.599 205.957 159.036 206.994C158.474 208.031 157.691 208.849 156.689 209.446C155.705 210.026 154.571 210.316 153.288 210.316ZM153.288 208.022C154.079 208.022 154.782 207.829 155.397 207.442C156.012 207.038 156.487 206.493 156.821 205.807C157.173 205.122 157.348 204.322 157.348 203.408C157.348 202.494 157.173 201.694 156.821 201.008C156.487 200.323 156.004 199.786 155.371 199.4C154.738 198.995 154.026 198.793 153.235 198.793C152.426 198.793 151.714 198.995 151.099 199.4C150.484 199.786 150 200.323 149.649 201.008C149.297 201.694 149.121 202.494 149.121 203.408C149.121 204.322 149.297 205.122 149.649 205.807C150 206.493 150.493 207.038 151.125 207.442C151.758 207.829 152.479 208.022 153.288 208.022ZM164.154 202.907C164.154 201.483 164.426 200.323 164.971 199.426C165.516 198.53 166.219 197.862 167.081 197.422C167.942 196.983 168.847 196.763 169.797 196.763V199.136C169.006 199.136 168.25 199.259 167.529 199.505C166.826 199.734 166.246 200.12 165.789 200.665C165.349 201.193 165.129 201.914 165.129 202.828L164.154 202.907ZM162.624 210V196.816H165.129V210H162.624ZM176.907 210.316C175.588 210.316 174.569 209.982 173.848 209.314C173.127 208.629 172.767 207.653 172.767 206.387V192.702H175.272V206.018C175.272 206.669 175.43 207.17 175.746 207.521C176.08 207.855 176.555 208.022 177.17 208.022C177.346 208.022 177.539 207.987 177.75 207.917C177.961 207.847 178.216 207.706 178.515 207.495L179.464 209.446C179.007 209.745 178.568 209.965 178.146 210.105C177.742 210.246 177.328 210.316 176.907 210.316ZM170.525 198.978V196.816H179.016V198.978H170.525ZM189.93 210L189.824 207.706V203.118C189.824 202.151 189.71 201.342 189.481 200.692C189.27 200.041 188.936 199.549 188.479 199.215C188.04 198.881 187.451 198.714 186.713 198.714C186.027 198.714 185.429 198.855 184.92 199.136C184.427 199.417 184.014 199.857 183.68 200.454L181.465 199.611C181.782 199.013 182.177 198.486 182.652 198.029C183.127 197.554 183.698 197.185 184.366 196.921C185.034 196.64 185.816 196.499 186.713 196.499C187.961 196.499 188.998 196.745 189.824 197.237C190.65 197.73 191.266 198.442 191.67 199.373C192.092 200.305 192.294 201.456 192.277 202.828L192.25 210H189.93ZM186.053 210.316C184.489 210.316 183.267 209.965 182.388 209.262C181.527 208.541 181.096 207.548 181.096 206.282C181.096 204.928 181.544 203.9 182.441 203.197C183.355 202.476 184.621 202.116 186.238 202.116H189.903V204.093H186.924C185.711 204.093 184.858 204.287 184.366 204.673C183.874 205.043 183.628 205.561 183.628 206.229C183.628 206.845 183.856 207.328 184.313 207.68C184.788 208.014 185.438 208.181 186.264 208.181C186.985 208.181 187.609 208.031 188.137 207.732C188.664 207.416 189.077 206.976 189.376 206.414C189.675 205.851 189.824 205.21 189.824 204.489H190.694C190.694 206.282 190.308 207.706 189.534 208.761C188.778 209.798 187.618 210.316 186.053 210.316ZM200.889 215.617C200.01 215.617 199.21 215.529 198.49 215.353C197.769 215.195 197.163 215.01 196.67 214.799C196.178 214.588 195.809 214.404 195.563 214.245L196.512 212.215C196.741 212.356 197.066 212.514 197.488 212.69C197.91 212.883 198.402 213.041 198.964 213.164C199.527 213.305 200.151 213.375 200.837 213.375C201.645 213.375 202.366 213.208 202.999 212.874C203.632 212.558 204.124 212.057 204.475 211.371C204.845 210.686 205.029 209.807 205.029 208.734V196.816H207.534V208.682C207.534 210.193 207.244 211.459 206.664 212.479C206.102 213.516 205.319 214.298 204.317 214.826C203.333 215.353 202.19 215.617 200.889 215.617ZM200.652 209.815C199.457 209.815 198.411 209.543 197.514 208.998C196.635 208.435 195.941 207.662 195.431 206.678C194.939 205.675 194.693 204.524 194.693 203.223C194.693 201.87 194.939 200.692 195.431 199.69C195.941 198.688 196.635 197.905 197.514 197.343C198.411 196.78 199.457 196.499 200.652 196.499C201.742 196.499 202.691 196.78 203.5 197.343C204.326 197.905 204.959 198.697 205.398 199.716C205.855 200.718 206.084 201.896 206.084 203.25C206.084 204.55 205.855 205.702 205.398 206.704C204.959 207.688 204.326 208.453 203.5 208.998C202.691 209.543 201.742 209.815 200.652 209.815ZM201.285 207.706C202.023 207.706 202.665 207.513 203.21 207.126C203.755 206.721 204.185 206.185 204.502 205.517C204.818 204.832 204.977 204.049 204.977 203.17C204.977 202.291 204.818 201.518 204.502 200.85C204.185 200.182 203.746 199.663 203.183 199.294C202.638 198.907 201.997 198.714 201.258 198.714C200.485 198.714 199.799 198.907 199.202 199.294C198.622 199.663 198.165 200.182 197.831 200.85C197.497 201.518 197.33 202.291 197.33 203.17C197.33 204.049 197.497 204.832 197.831 205.517C198.182 206.185 198.648 206.721 199.228 207.126C199.826 207.513 200.511 207.706 201.285 207.706ZM216.838 210.316C215.554 210.316 214.421 210.026 213.436 209.446C212.452 208.849 211.678 208.031 211.116 206.994C210.553 205.957 210.272 204.761 210.272 203.408C210.272 202.054 210.553 200.859 211.116 199.822C211.678 198.784 212.452 197.976 213.436 197.396C214.438 196.798 215.581 196.499 216.864 196.499C218.077 196.499 219.141 196.807 220.055 197.422C220.969 198.02 221.681 198.881 222.191 200.006C222.718 201.114 222.982 202.423 222.982 203.935H212.329L212.803 203.54C212.803 204.471 212.988 205.28 213.357 205.966C213.726 206.651 214.227 207.179 214.86 207.548C215.493 207.899 216.214 208.075 217.022 208.075C217.901 208.075 218.631 207.873 219.211 207.469C219.809 207.047 220.275 206.519 220.609 205.886L222.771 206.888C222.419 207.574 221.962 208.181 221.4 208.708C220.837 209.218 220.169 209.613 219.396 209.895C218.64 210.176 217.787 210.316 216.838 210.316ZM212.962 202.353L212.461 201.957H220.793L220.318 202.353C220.318 201.58 220.16 200.92 219.844 200.375C219.527 199.813 219.106 199.391 218.578 199.11C218.051 198.811 217.462 198.661 216.811 198.661C216.179 198.661 215.563 198.811 214.966 199.11C214.385 199.391 213.902 199.804 213.515 200.349C213.146 200.894 212.962 201.562 212.962 202.353ZM230.177 210.316C229.245 210.316 228.41 210.176 227.671 209.895C226.951 209.613 226.335 209.235 225.826 208.761C225.333 208.286 224.964 207.75 224.718 207.152L226.88 206.203C227.162 206.748 227.584 207.196 228.146 207.548C228.709 207.899 229.333 208.075 230.018 208.075C230.774 208.075 231.398 207.934 231.891 207.653C232.383 207.372 232.629 206.976 232.629 206.467C232.629 205.974 232.444 205.588 232.075 205.306C231.706 205.025 231.17 204.797 230.467 204.621L229.227 204.304C227.997 203.97 227.039 203.469 226.353 202.801C225.685 202.133 225.351 201.377 225.351 200.534C225.351 199.25 225.764 198.257 226.59 197.554C227.417 196.851 228.638 196.499 230.256 196.499C231.047 196.499 231.767 196.613 232.418 196.842C233.086 197.07 233.648 197.396 234.106 197.818C234.58 198.239 234.914 198.74 235.108 199.321L232.998 200.27C232.787 199.742 232.427 199.356 231.917 199.11C231.407 198.846 230.809 198.714 230.124 198.714C229.421 198.714 228.867 198.872 228.463 199.189C228.058 199.488 227.856 199.909 227.856 200.454C227.856 200.753 228.023 201.043 228.357 201.325C228.709 201.588 229.218 201.808 229.886 201.984L231.31 202.327C232.172 202.538 232.884 202.863 233.446 203.302C234.009 203.724 234.431 204.208 234.712 204.753C234.993 205.28 235.134 205.834 235.134 206.414C235.134 207.205 234.914 207.899 234.475 208.497C234.053 209.077 233.464 209.525 232.708 209.842C231.97 210.158 231.126 210.316 230.177 210.316Z" fill="#334897"/>
<path d="M159 80C159 85.8348 156.682 91.4306 152.556 95.5564C148.431 99.6822 142.835 102 137 102C131.165 102 125.569 99.6822 121.444 95.5564C117.318 91.4306 115 85.8348 115 80M159 80H115M159 80C159 74.1652 156.682 68.5694 152.556 64.4436C148.431 60.3178 142.835 58 137 58M115 80C115 74.1652 117.318 68.5694 121.444 64.4436C125.569 60.3178 131.165 58 137 58M137 58V47M104 80H170M120.5 129.5V140.5M153.5 129.5V140.5M137 110.25C111.18 110.25 90.25 129.948 90.25 154.25H183.75C183.75 129.948 162.82 110.25 137 110.25Z" stroke="#334897" stroke-width="5" stroke-linecap="round" stroke-linejoin="round"/>
</svg>
