<svg width="263" height="285" viewBox="0 0 263 285" fill="none" xmlns="http://www.w3.org/2000/svg">
<rect width="263" height="285" rx="24" fill="white"/>
<path d="M60.5986 210.316C59.6141 210.316 58.7176 210.202 57.9089 209.974C57.1179 209.745 56.4235 209.437 55.8258 209.051C55.2457 208.646 54.7622 208.198 54.3755 207.706C53.9887 207.214 53.7163 206.695 53.5581 206.15L56.0631 205.333C56.3268 206.053 56.8278 206.678 57.5661 207.205C58.3045 207.732 59.2098 208.005 60.2821 208.022C61.583 208.022 62.6026 207.767 63.3409 207.258C64.0968 206.73 64.4748 206.036 64.4748 205.174C64.4748 204.383 64.1496 203.742 63.4991 203.25C62.8487 202.74 61.9873 202.353 60.915 202.089L58.7791 201.536C57.9353 201.307 57.1618 200.982 56.4586 200.56C55.773 200.138 55.2281 199.602 54.8238 198.951C54.4194 198.301 54.2173 197.519 54.2173 196.605C54.2173 194.917 54.7622 193.599 55.8521 192.649C56.9596 191.7 58.5506 191.225 60.6249 191.225C61.8203 191.225 62.8575 191.419 63.7365 191.805C64.6154 192.175 65.3362 192.667 65.8987 193.282C66.4788 193.897 66.8919 194.574 67.1381 195.313L64.633 196.156C64.3342 195.365 63.8244 194.732 63.1036 194.258C62.3829 193.766 61.4951 193.519 60.4403 193.519C59.3328 193.519 58.4539 193.783 57.8035 194.31C57.1706 194.838 56.8542 195.559 56.8542 196.473C56.8542 197.246 57.1003 197.844 57.5925 198.266C58.1023 198.67 58.7791 198.978 59.6229 199.189L61.7588 199.716C63.4816 200.138 64.8088 200.841 65.7405 201.826C66.6898 202.792 67.1644 203.856 67.1644 205.016C67.1644 206.018 66.9095 206.924 66.3997 207.732C65.9075 208.523 65.1692 209.156 64.1847 209.631C63.2179 210.088 62.0225 210.316 60.5986 210.316ZM79.144 210L78.9857 207.574V196.816H81.4644V210H79.144ZM69.8621 203.566V196.816H72.3671V203.566H69.8621ZM72.3671 203.566C72.3671 204.744 72.499 205.649 72.7627 206.282C73.0439 206.915 73.4307 207.354 73.9229 207.6C74.4151 207.847 74.9689 207.978 75.5841 207.996C76.6565 207.996 77.4915 207.618 78.0892 206.862C78.6869 206.106 78.9857 205.043 78.9857 203.671H80.0669C80.0669 205.06 79.8559 206.256 79.434 207.258C79.0297 208.242 78.4496 208.998 77.6937 209.525C76.9378 210.053 76.0148 210.316 74.9249 210.316C73.9053 210.316 73.0088 210.105 72.2353 209.684C71.4794 209.262 70.8905 208.602 70.4686 207.706C70.0642 206.809 69.8621 205.649 69.8621 204.225V203.566H72.3671ZM85.0914 215.274V196.816H87.4382L87.5964 199.241V215.274H85.0914ZM91.9209 210.316C90.8134 210.316 89.8466 210.026 89.0204 209.446C88.2117 208.866 87.5876 208.057 87.1482 207.02C86.7087 205.983 86.4889 204.779 86.4889 203.408C86.4889 202.019 86.7087 200.815 87.1482 199.795C87.5876 198.758 88.2117 197.949 89.0204 197.369C89.8466 196.789 90.8134 196.499 91.9209 196.499C93.0987 196.499 94.1359 196.789 95.0325 197.369C95.929 197.949 96.6234 198.758 97.1156 199.795C97.6254 200.815 97.8803 202.019 97.8803 203.408C97.8803 204.779 97.6254 205.983 97.1156 207.02C96.6234 208.057 95.929 208.866 95.0325 209.446C94.1359 210.026 93.0987 210.316 91.9209 210.316ZM91.3144 208.049C92.1055 208.049 92.7999 207.855 93.3976 207.469C93.9953 207.064 94.4611 206.519 94.7951 205.834C95.1467 205.131 95.3225 204.322 95.3225 203.408C95.3225 202.494 95.1555 201.694 94.8215 201.008C94.4875 200.305 94.0217 199.76 93.424 199.373C92.8263 198.969 92.1319 198.767 91.3408 198.767C90.6201 198.767 89.9696 198.969 89.3895 199.373C88.827 199.76 88.3875 200.305 88.0711 201.008C87.7546 201.711 87.5964 202.511 87.5964 203.408C87.5964 204.322 87.7546 205.131 88.0711 205.834C88.3875 206.519 88.827 207.064 89.3895 207.469C89.9521 207.855 90.5937 208.049 91.3144 208.049ZM100.748 215.274V196.816H103.095L103.253 199.241V215.274H100.748ZM107.577 210.316C106.47 210.316 105.503 210.026 104.677 209.446C103.868 208.866 103.244 208.057 102.805 207.02C102.365 205.983 102.145 204.779 102.145 203.408C102.145 202.019 102.365 200.815 102.805 199.795C103.244 198.758 103.868 197.949 104.677 197.369C105.503 196.789 106.47 196.499 107.577 196.499C108.755 196.499 109.792 196.789 110.689 197.369C111.586 197.949 112.28 198.758 112.772 199.795C113.282 200.815 113.537 202.019 113.537 203.408C113.537 204.779 113.282 205.983 112.772 207.02C112.28 208.057 111.586 208.866 110.689 209.446C109.792 210.026 108.755 210.316 107.577 210.316ZM106.971 208.049C107.762 208.049 108.456 207.855 109.054 207.469C109.652 207.064 110.118 206.519 110.452 205.834C110.803 205.131 110.979 204.322 110.979 203.408C110.979 202.494 110.812 201.694 110.478 201.008C110.144 200.305 109.678 199.76 109.081 199.373C108.483 198.969 107.788 198.767 106.997 198.767C106.277 198.767 105.626 198.969 105.046 199.373C104.484 199.76 104.044 200.305 103.728 201.008C103.411 201.711 103.253 202.511 103.253 203.408C103.253 204.322 103.411 205.131 103.728 205.834C104.044 206.519 104.484 207.064 105.046 207.469C105.609 207.855 106.25 208.049 106.971 208.049ZM116.273 210V191.542H118.778V210H116.273ZM123.855 215.59C123.469 215.59 123.038 215.52 122.563 215.379C122.106 215.239 121.632 215.054 121.139 214.826L122.062 212.769C122.449 212.945 122.783 213.076 123.064 213.164C123.363 213.252 123.6 213.296 123.776 213.296C124.216 213.296 124.585 213.173 124.884 212.927C125.2 212.681 125.455 212.338 125.648 211.899L127.178 208.286L131.872 196.816H134.561L128.312 211.635C127.978 212.444 127.626 213.147 127.257 213.744C126.888 214.342 126.431 214.799 125.886 215.116C125.358 215.432 124.682 215.59 123.855 215.59ZM126.492 210L120.717 196.816H123.381L128.153 208.26L128.918 210H126.492ZM151.389 210.316C149.631 210.316 148.067 209.912 146.696 209.103C145.324 208.277 144.252 207.152 143.479 205.728C142.705 204.287 142.318 202.634 142.318 200.771C142.318 198.907 142.705 197.264 143.479 195.84C144.252 194.398 145.316 193.273 146.669 192.465C148.023 191.638 149.579 191.225 151.337 191.225C152.479 191.225 153.569 191.436 154.606 191.858C155.643 192.262 156.566 192.834 157.375 193.572C158.201 194.293 158.834 195.137 159.274 196.104L156.953 197.158C156.619 196.438 156.162 195.814 155.582 195.286C155.002 194.759 154.343 194.346 153.604 194.047C152.883 193.748 152.128 193.599 151.337 193.599C150.106 193.599 149.007 193.906 148.04 194.521C147.074 195.137 146.318 195.981 145.773 197.053C145.228 198.125 144.955 199.365 144.955 200.771C144.955 202.177 145.228 203.425 145.773 204.515C146.335 205.605 147.1 206.458 148.067 207.073C149.051 207.671 150.167 207.97 151.416 207.97C152.224 207.97 152.989 207.811 153.71 207.495C154.43 207.161 155.072 206.713 155.635 206.15C156.215 205.57 156.681 204.911 157.032 204.172L159.353 205.201C158.913 206.203 158.289 207.091 157.48 207.864C156.672 208.638 155.74 209.244 154.685 209.684C153.648 210.105 152.549 210.316 151.389 210.316ZM161.981 210V191.542H164.46V210H161.981ZM171.105 210V203.25H173.583V210H171.105ZM171.105 203.25C171.105 202.054 170.964 201.149 170.683 200.534C170.402 199.901 170.015 199.461 169.523 199.215C169.048 198.969 168.503 198.837 167.888 198.82C166.798 198.82 165.954 199.198 165.356 199.953C164.759 200.709 164.46 201.773 164.46 203.144H163.405C163.405 201.755 163.607 200.569 164.012 199.584C164.433 198.582 165.022 197.818 165.778 197.29C166.552 196.763 167.466 196.499 168.521 196.499C169.558 196.499 170.454 196.71 171.21 197.132C171.966 197.554 172.555 198.213 172.977 199.11C173.399 199.989 173.601 201.149 173.583 202.59V203.25H171.105ZM184.831 210L184.726 207.706V203.118C184.726 202.151 184.611 201.342 184.383 200.692C184.172 200.041 183.838 199.549 183.381 199.215C182.941 198.881 182.352 198.714 181.614 198.714C180.928 198.714 180.331 198.855 179.821 199.136C179.329 199.417 178.916 199.857 178.582 200.454L176.367 199.611C176.683 199.013 177.079 198.486 177.553 198.029C178.028 197.554 178.599 197.185 179.267 196.921C179.935 196.64 180.717 196.499 181.614 196.499C182.862 196.499 183.899 196.745 184.726 197.237C185.552 197.73 186.167 198.442 186.571 199.373C186.993 200.305 187.195 201.456 187.178 202.828L187.152 210H184.831ZM180.955 210.316C179.39 210.316 178.168 209.965 177.29 209.262C176.428 208.541 175.997 207.548 175.997 206.282C175.997 204.928 176.446 203.9 177.342 203.197C178.256 202.476 179.522 202.116 181.139 202.116H184.805V204.093H181.825C180.612 204.093 179.759 204.287 179.267 204.673C178.775 205.043 178.529 205.561 178.529 206.229C178.529 206.845 178.757 207.328 179.214 207.68C179.689 208.014 180.34 208.181 181.166 208.181C181.887 208.181 182.511 208.031 183.038 207.732C183.565 207.416 183.978 206.976 184.277 206.414C184.576 205.851 184.726 205.21 184.726 204.489H185.596C185.596 206.282 185.209 207.706 184.436 208.761C183.68 209.798 182.519 210.316 180.955 210.316ZM190.49 210V196.816H192.996V210H190.49ZM191.756 194.02C191.352 194.02 191 193.871 190.701 193.572C190.403 193.256 190.253 192.895 190.253 192.491C190.253 192.069 190.403 191.718 190.701 191.436C191 191.137 191.352 190.988 191.756 190.988C192.178 190.988 192.53 191.137 192.811 191.436C193.11 191.718 193.259 192.069 193.259 192.491C193.259 192.895 193.11 193.256 192.811 193.572C192.53 193.871 192.178 194.02 191.756 194.02ZM196.667 210V196.816H199.014L199.172 199.241V210H196.667ZM205.791 210V203.25H208.296V210H205.791ZM205.791 203.25C205.791 202.054 205.65 201.149 205.369 200.534C205.105 199.901 204.727 199.461 204.235 199.215C203.76 198.969 203.206 198.837 202.574 198.82C201.501 198.82 200.666 199.198 200.069 199.953C199.471 200.709 199.172 201.773 199.172 203.144H198.091C198.091 201.755 198.293 200.569 198.697 199.584C199.119 198.582 199.708 197.818 200.464 197.29C201.238 196.763 202.152 196.499 203.206 196.499C204.244 196.499 205.14 196.71 205.896 197.132C206.67 197.554 207.259 198.213 207.663 199.11C208.085 199.989 208.296 201.149 208.296 202.59V203.25H205.791ZM65.6992 242V223.542H71.3949C73.1528 223.542 74.7086 223.937 76.0622 224.728C77.4334 225.502 78.5057 226.583 79.2792 227.972C80.0527 229.36 80.4394 230.96 80.4394 232.771C80.4394 234.564 80.0527 236.155 79.2792 237.544C78.5057 238.932 77.4334 240.022 76.0622 240.813C74.7086 241.604 73.1528 242 71.3949 242H65.6992ZM68.2833 239.574H71.3949C72.2914 239.574 73.1264 239.407 73.8999 239.073C74.6734 238.721 75.3502 238.238 75.9303 237.623C76.528 236.99 76.9851 236.26 77.3015 235.434C77.6355 234.608 77.8025 233.72 77.8025 232.771C77.8025 231.822 77.6355 230.934 77.3015 230.108C76.9851 229.281 76.528 228.561 75.9303 227.945C75.3502 227.313 74.6734 226.829 73.8999 226.495C73.1264 226.143 72.2914 225.968 71.3949 225.968H68.2833V239.574ZM83.4826 242V228.816H85.9876V242H83.4826ZM84.7483 226.02C84.3439 226.02 83.9924 225.871 83.6935 225.572C83.3947 225.256 83.2452 224.895 83.2452 224.491C83.2452 224.069 83.3947 223.718 83.6935 223.436C83.9924 223.137 84.3439 222.988 84.7483 222.988C85.1702 222.988 85.5218 223.137 85.803 223.436C86.1019 223.718 86.2513 224.069 86.2513 224.491C86.2513 224.895 86.1019 225.256 85.803 225.572C85.5218 225.871 85.1702 226.02 84.7483 226.02ZM94.3791 242.316C93.4474 242.316 92.6124 242.176 91.8741 241.895C91.1533 241.613 90.538 241.235 90.0282 240.761C89.536 240.286 89.1669 239.75 88.9207 239.152L91.083 238.203C91.3643 238.748 91.7862 239.196 92.3487 239.548C92.9112 239.899 93.5353 240.075 94.2209 240.075C94.9768 240.075 95.6009 239.934 96.0931 239.653C96.5853 239.372 96.8314 238.976 96.8314 238.467C96.8314 237.974 96.6468 237.588 96.2777 237.306C95.9085 237.025 95.3723 236.797 94.6692 236.621L93.4298 236.304C92.1993 235.97 91.2412 235.469 90.5556 234.801C89.8876 234.133 89.5536 233.377 89.5536 232.534C89.5536 231.25 89.9667 230.257 90.7929 229.554C91.6192 228.851 92.8409 228.499 94.4582 228.499C95.2493 228.499 95.97 228.613 96.6205 228.842C97.2885 229.07 97.851 229.396 98.3081 229.818C98.7827 230.239 99.1167 230.74 99.3101 231.321L97.2006 232.27C96.9896 231.742 96.6293 231.356 96.1195 231.11C95.6097 230.846 95.012 230.714 94.3264 230.714C93.6232 230.714 93.0695 230.872 92.6651 231.189C92.2608 231.488 92.0586 231.909 92.0586 232.454C92.0586 232.753 92.2256 233.043 92.5597 233.325C92.9112 233.588 93.421 233.808 94.0891 233.984L95.513 234.327C96.3744 234.538 97.0863 234.863 97.6489 235.302C98.2114 235.724 98.6333 236.208 98.9146 236.753C99.1958 237.28 99.3365 237.834 99.3365 238.414C99.3365 239.205 99.1167 239.899 98.6772 240.497C98.2553 241.077 97.6664 241.525 96.9105 241.842C96.1722 242.158 95.3284 242.316 94.3791 242.316ZM103.472 234.907C103.472 233.483 103.744 232.323 104.289 231.426C104.834 230.53 105.537 229.862 106.399 229.422C107.26 228.983 108.165 228.763 109.115 228.763V231.136C108.324 231.136 107.568 231.259 106.847 231.505C106.144 231.734 105.564 232.12 105.107 232.665C104.667 233.193 104.447 233.914 104.447 234.828L103.472 234.907ZM101.942 242V228.816H104.447V242H101.942ZM120.101 242L119.943 239.574V228.816H122.421V242H120.101ZM110.819 235.566V228.816H113.324V235.566H110.819ZM113.324 235.566C113.324 236.744 113.456 237.649 113.719 238.282C114.001 238.915 114.388 239.354 114.88 239.6C115.372 239.847 115.926 239.978 116.541 239.996C117.613 239.996 118.448 239.618 119.046 238.862C119.644 238.106 119.943 237.043 119.943 235.671H121.024C121.024 237.06 120.813 238.256 120.391 239.258C119.987 240.242 119.406 240.998 118.65 241.525C117.895 242.053 116.972 242.316 115.882 242.316C114.862 242.316 113.966 242.105 113.192 241.684C112.436 241.262 111.847 240.602 111.425 239.706C111.021 238.809 110.819 237.649 110.819 236.225V235.566H113.324ZM126.048 247.274V228.816H128.395L128.553 231.241V247.274H126.048ZM132.878 242.316C131.77 242.316 130.803 242.026 129.977 241.446C129.169 240.866 128.544 240.057 128.105 239.02C127.665 237.983 127.446 236.779 127.446 235.408C127.446 234.019 127.665 232.815 128.105 231.795C128.544 230.758 129.169 229.949 129.977 229.369C130.803 228.789 131.77 228.499 132.878 228.499C134.056 228.499 135.093 228.789 135.989 229.369C136.886 229.949 137.58 230.758 138.072 231.795C138.582 232.815 138.837 234.019 138.837 235.408C138.837 236.779 138.582 237.983 138.072 239.02C137.58 240.057 136.886 240.866 135.989 241.446C135.093 242.026 134.056 242.316 132.878 242.316ZM132.271 240.049C133.062 240.049 133.757 239.855 134.354 239.469C134.952 239.064 135.418 238.519 135.752 237.834C136.104 237.131 136.279 236.322 136.279 235.408C136.279 234.494 136.112 233.694 135.778 233.008C135.444 232.305 134.978 231.76 134.381 231.373C133.783 230.969 133.089 230.767 132.298 230.767C131.577 230.767 130.926 230.969 130.346 231.373C129.784 231.76 129.344 232.305 129.028 233.008C128.711 233.711 128.553 234.511 128.553 235.408C128.553 236.322 128.711 237.131 129.028 237.834C129.344 238.519 129.784 239.064 130.346 239.469C130.909 239.855 131.551 240.049 132.271 240.049ZM146.662 242.316C145.344 242.316 144.324 241.982 143.603 241.314C142.883 240.629 142.522 239.653 142.522 238.387V224.702H145.027V238.018C145.027 238.669 145.185 239.17 145.502 239.521C145.836 239.855 146.311 240.022 146.926 240.022C147.102 240.022 147.295 239.987 147.506 239.917C147.717 239.847 147.972 239.706 148.271 239.495L149.22 241.446C148.763 241.745 148.323 241.965 147.901 242.105C147.497 242.246 147.084 242.316 146.662 242.316ZM140.281 230.978V228.816H148.772V230.978H140.281ZM151.851 242V228.816H154.356V242H151.851ZM153.117 226.02C152.713 226.02 152.361 225.871 152.062 225.572C151.763 225.256 151.614 224.895 151.614 224.491C151.614 224.069 151.763 223.718 152.062 223.436C152.361 223.137 152.713 222.988 153.117 222.988C153.539 222.988 153.89 223.137 154.172 223.436C154.471 223.718 154.62 224.069 154.62 224.491C154.62 224.895 154.471 225.256 154.172 225.572C153.89 225.871 153.539 226.02 153.117 226.02ZM163.987 242.316C162.669 242.316 161.508 242.026 160.506 241.446C159.504 240.849 158.713 240.031 158.133 238.994C157.571 237.957 157.289 236.761 157.289 235.408C157.289 234.054 157.571 232.859 158.133 231.822C158.696 230.784 159.478 229.976 160.48 229.396C161.482 228.798 162.634 228.499 163.934 228.499C165.235 228.499 166.387 228.798 167.389 229.396C168.391 229.976 169.173 230.784 169.736 231.822C170.298 232.859 170.579 234.054 170.579 235.408C170.579 236.761 170.298 237.957 169.736 238.994C169.173 240.031 168.391 240.849 167.389 241.446C166.404 242.026 165.27 242.316 163.987 242.316ZM163.987 240.022C164.778 240.022 165.481 239.829 166.097 239.442C166.712 239.038 167.187 238.493 167.521 237.807C167.872 237.122 168.048 236.322 168.048 235.408C168.048 234.494 167.872 233.694 167.521 233.008C167.187 232.323 166.703 231.786 166.07 231.4C165.437 230.995 164.725 230.793 163.934 230.793C163.126 230.793 162.414 230.995 161.798 231.4C161.183 231.786 160.7 232.323 160.348 233.008C159.997 233.694 159.821 234.494 159.821 235.408C159.821 236.322 159.997 237.122 160.348 237.807C160.7 238.493 161.192 239.038 161.825 239.442C162.458 239.829 163.178 240.022 163.987 240.022ZM173.324 242V228.816H175.671L175.829 231.241V242H173.324ZM182.447 242V235.25H184.952V242H182.447ZM182.447 235.25C182.447 234.054 182.307 233.149 182.026 232.534C181.762 231.901 181.384 231.461 180.892 231.215C180.417 230.969 179.863 230.837 179.23 230.82C178.158 230.82 177.323 231.198 176.725 231.953C176.128 232.709 175.829 233.773 175.829 235.144H174.748C174.748 233.755 174.95 232.569 175.354 231.584C175.776 230.582 176.365 229.818 177.121 229.29C177.894 228.763 178.809 228.499 179.863 228.499C180.9 228.499 181.797 228.71 182.553 229.132C183.326 229.554 183.915 230.213 184.32 231.11C184.742 231.989 184.952 233.149 184.952 234.59V235.25H182.447ZM192.825 242.316C191.893 242.316 191.058 242.176 190.32 241.895C189.599 241.613 188.984 241.235 188.474 240.761C187.982 240.286 187.613 239.75 187.366 239.152L189.529 238.203C189.81 238.748 190.232 239.196 190.794 239.548C191.357 239.899 191.981 240.075 192.667 240.075C193.423 240.075 194.047 239.934 194.539 239.653C195.031 239.372 195.277 238.976 195.277 238.467C195.277 237.974 195.093 237.588 194.723 237.306C194.354 237.025 193.818 236.797 193.115 236.621L191.876 236.304C190.645 235.97 189.687 235.469 189.001 234.801C188.333 234.133 187.999 233.377 187.999 232.534C187.999 231.25 188.412 230.257 189.239 229.554C190.065 228.851 191.287 228.499 192.904 228.499C193.695 228.499 194.416 228.613 195.066 228.842C195.734 229.07 196.297 229.396 196.754 229.818C197.228 230.239 197.562 230.74 197.756 231.321L195.646 232.27C195.435 231.742 195.075 231.356 194.565 231.11C194.055 230.846 193.458 230.714 192.772 230.714C192.069 230.714 191.515 230.872 191.111 231.189C190.707 231.488 190.504 231.909 190.504 232.454C190.504 232.753 190.671 233.043 191.005 233.325C191.357 233.588 191.867 233.808 192.535 233.984L193.959 234.327C194.82 234.538 195.532 234.863 196.095 235.302C196.657 235.724 197.079 236.208 197.36 236.753C197.642 237.28 197.782 237.834 197.782 238.414C197.782 239.205 197.562 239.899 197.123 240.497C196.701 241.077 196.112 241.525 195.356 241.842C194.618 242.158 193.774 242.316 192.825 242.316Z" fill="#334897"/>
<path d="M181 118.5V77.2498L146.625 57.9146M127.375 57.9146L93 77.2498V118.5M101.25 131.392L137 151.5L159 139.125L172.75 131.392M137 82.7498L145.25 87.5623L153.5 92.3748V111.625L145.25 116.437L137 121.25L128.75 116.437L120.5 111.625V92.3748L128.75 87.5623L137 82.7498ZM137 82.7498V63.4998M153.5 110.25L172.75 121.25M120.5 110.25L101.25 121.25" stroke="#334897" stroke-width="4.5" stroke-linecap="round" stroke-linejoin="round"/>
<path d="M137 63.5C141.556 63.5 145.25 59.8063 145.25 55.25C145.25 50.6937 141.556 47 137 47C132.444 47 128.75 50.6937 128.75 55.25C128.75 59.8063 132.444 63.5 137 63.5Z" stroke="#334897" stroke-width="4.5" stroke-linecap="round" stroke-linejoin="round"/>
<path d="M93 135C97.5563 135 101.25 131.306 101.25 126.75C101.25 122.194 97.5563 118.5 93 118.5C88.4437 118.5 84.75 122.194 84.75 126.75C84.75 131.306 88.4437 135 93 135Z" stroke="#334897" stroke-width="4.5" stroke-linecap="round" stroke-linejoin="round"/>
<path d="M181 135C185.556 135 189.25 131.306 189.25 126.75C189.25 122.194 185.556 118.5 181 118.5C176.444 118.5 172.75 122.194 172.75 126.75C172.75 131.306 176.444 135 181 135Z" stroke="#334897" stroke-width="4.5" stroke-linecap="round" stroke-linejoin="round"/>
</svg>