<svg width="263" height="285" viewBox="0 0 263 285" fill="none" xmlns="http://www.w3.org/2000/svg">
<rect width="263" height="285" rx="24" fill="white"/>
<path d="M59.2724 210.316C58.2879 210.316 57.3914 210.202 56.5828 209.974C55.7917 209.745 55.0973 209.437 54.4996 209.051C53.9195 208.646 53.4361 208.198 53.0493 207.706C52.6626 207.214 52.3901 206.695 52.2319 206.15L54.7369 205.333C55.0006 206.053 55.5016 206.678 56.24 207.205C56.9783 207.732 57.8836 208.005 58.956 208.022C60.2568 208.022 61.2764 207.767 62.0148 207.258C62.7707 206.73 63.1486 206.036 63.1486 205.174C63.1486 204.383 62.8234 203.742 62.173 203.25C61.5225 202.74 60.6611 202.353 59.5888 202.089L57.4529 201.536C56.6091 201.307 55.8356 200.982 55.1325 200.56C54.4469 200.138 53.9019 199.602 53.4976 198.951C53.0933 198.301 52.8911 197.519 52.8911 196.605C52.8911 194.917 53.4361 193.599 54.526 192.649C55.6335 191.7 57.2244 191.225 59.2988 191.225C60.4941 191.225 61.5313 191.419 62.4103 191.805C63.2893 192.175 64.01 192.667 64.5725 193.282C65.1527 193.897 65.5658 194.574 65.8119 195.313L63.3068 196.156C63.008 195.365 62.4982 194.732 61.7774 194.258C61.0567 193.766 60.1689 193.519 59.1142 193.519C58.0067 193.519 57.1277 193.783 56.4773 194.31C55.8444 194.838 55.528 195.559 55.528 196.473C55.528 197.246 55.7741 197.844 56.2663 198.266C56.7761 198.67 57.4529 198.978 58.2967 199.189L60.4326 199.716C62.1554 200.138 63.4826 200.841 64.4143 201.826C65.3636 202.792 65.8382 203.856 65.8382 205.016C65.8382 206.018 65.5834 206.924 65.0736 207.732C64.5813 208.523 63.843 209.156 62.8586 209.631C61.8917 210.088 60.6963 210.316 59.2724 210.316ZM77.8178 210L77.6596 207.574V196.816H80.1382V210H77.8178ZM68.5359 203.566V196.816H71.041V203.566H68.5359ZM71.041 203.566C71.041 204.744 71.1728 205.649 71.4365 206.282C71.7178 206.915 72.1045 207.354 72.5967 207.6C73.089 207.847 73.6427 207.978 74.258 207.996C75.3303 207.996 76.1653 207.618 76.763 206.862C77.3607 206.106 77.6596 205.043 77.6596 203.671H78.7407C78.7407 205.06 78.5297 206.256 78.1078 207.258C77.7035 208.242 77.1234 208.998 76.3675 209.525C75.6116 210.053 74.6887 210.316 73.5987 210.316C72.5792 210.316 71.6826 210.105 70.9091 209.684C70.1532 209.262 69.5643 208.602 69.1424 207.706C68.7381 206.809 68.5359 205.649 68.5359 204.225V203.566H71.041ZM88.3534 210.316C87.4217 210.316 86.5867 210.176 85.8484 209.895C85.1276 209.613 84.5123 209.235 84.0025 208.761C83.5103 208.286 83.1411 207.75 82.895 207.152L85.0573 206.203C85.3386 206.748 85.7605 207.196 86.323 207.548C86.8855 207.899 87.5096 208.075 88.1952 208.075C88.9511 208.075 89.5752 207.934 90.0674 207.653C90.5596 207.372 90.8057 206.976 90.8057 206.467C90.8057 205.974 90.6211 205.588 90.252 205.306C89.8828 205.025 89.3466 204.797 88.6435 204.621L87.4041 204.304C86.1736 203.97 85.2155 203.469 84.5299 202.801C83.8619 202.133 83.5279 201.377 83.5279 200.534C83.5279 199.25 83.941 198.257 84.7672 197.554C85.5935 196.851 86.8152 196.499 88.4325 196.499C89.2236 196.499 89.9443 196.613 90.5948 196.842C91.2628 197.07 91.8253 197.396 92.2824 197.818C92.757 198.239 93.091 198.74 93.2844 199.321L91.1749 200.27C90.9639 199.742 90.6036 199.356 90.0938 199.11C89.584 198.846 88.9863 198.714 88.3007 198.714C87.5975 198.714 87.0437 198.872 86.6394 199.189C86.2351 199.488 86.0329 199.909 86.0329 200.454C86.0329 200.753 86.1999 201.043 86.5339 201.325C86.8855 201.588 87.3953 201.808 88.0633 201.984L89.4873 202.327C90.3487 202.538 91.0606 202.863 91.6231 203.302C92.1857 203.724 92.6076 204.208 92.8889 204.753C93.1701 205.28 93.3108 205.834 93.3108 206.414C93.3108 207.205 93.091 207.899 92.6515 208.497C92.2296 209.077 91.6407 209.525 90.8848 209.842C90.1465 210.158 89.3027 210.316 88.3534 210.316ZM101.006 210.316C99.6873 210.316 98.6677 209.982 97.947 209.314C97.2262 208.629 96.8658 207.653 96.8658 206.387V192.702H99.3709V206.018C99.3709 206.669 99.5291 207.17 99.8455 207.521C100.18 207.855 100.654 208.022 101.269 208.022C101.445 208.022 101.639 207.987 101.85 207.917C102.061 207.847 102.315 207.706 102.614 207.495L103.564 209.446C103.106 209.745 102.667 209.965 102.245 210.105C101.841 210.246 101.428 210.316 101.006 210.316ZM94.6245 198.978V196.816H103.115V198.978H94.6245ZM114.029 210L113.923 207.706V203.118C113.923 202.151 113.809 201.342 113.581 200.692C113.37 200.041 113.036 199.549 112.579 199.215C112.139 198.881 111.55 198.714 110.812 198.714C110.126 198.714 109.529 198.855 109.019 199.136C108.527 199.417 108.113 199.857 107.779 200.454L105.564 199.611C105.881 199.013 106.276 198.486 106.751 198.029C107.226 197.554 107.797 197.185 108.465 196.921C109.133 196.64 109.915 196.499 110.812 196.499C112.06 196.499 113.097 196.745 113.923 197.237C114.75 197.73 115.365 198.442 115.769 199.373C116.191 200.305 116.393 201.456 116.376 202.828L116.349 210H114.029ZM110.153 210.316C108.588 210.316 107.366 209.965 106.487 209.262C105.626 208.541 105.195 207.548 105.195 206.282C105.195 204.928 105.644 203.9 106.54 203.197C107.454 202.476 108.72 202.116 110.337 202.116H114.003V204.093H111.023C109.81 204.093 108.957 204.287 108.465 204.673C107.973 205.043 107.727 205.561 107.727 206.229C107.727 206.845 107.955 207.328 108.412 207.68C108.887 208.014 109.537 208.181 110.364 208.181C111.084 208.181 111.708 208.031 112.236 207.732C112.763 207.416 113.176 206.976 113.475 206.414C113.774 205.851 113.923 205.21 113.923 204.489H114.794C114.794 206.282 114.407 207.706 113.633 208.761C112.877 209.798 111.717 210.316 110.153 210.316ZM119.688 210V196.816H122.193V210H119.688ZM120.954 194.02C120.55 194.02 120.198 193.871 119.899 193.572C119.6 193.256 119.451 192.895 119.451 192.491C119.451 192.069 119.6 191.718 119.899 191.436C120.198 191.137 120.55 190.988 120.954 190.988C121.376 190.988 121.728 191.137 122.009 191.436C122.308 191.718 122.457 192.069 122.457 192.491C122.457 192.895 122.308 193.256 122.009 193.572C121.728 193.871 121.376 194.02 120.954 194.02ZM125.865 210V196.816H128.212L128.37 199.241V210H125.865ZM134.989 210V203.25H137.494V210H134.989ZM134.989 203.25C134.989 202.054 134.848 201.149 134.567 200.534C134.303 199.901 133.925 199.461 133.433 199.215C132.958 198.969 132.404 198.837 131.772 198.82C130.699 198.82 129.864 199.198 129.266 199.953C128.669 200.709 128.37 201.773 128.37 203.144H127.289C127.289 201.755 127.491 200.569 127.895 199.584C128.317 198.582 128.906 197.818 129.662 197.29C130.435 196.763 131.35 196.499 132.404 196.499C133.442 196.499 134.338 196.71 135.094 197.132C135.867 197.554 136.456 198.213 136.861 199.11C137.283 199.989 137.494 201.149 137.494 202.59V203.25H134.989ZM148.741 210L148.636 207.706V203.118C148.636 202.151 148.521 201.342 148.293 200.692C148.082 200.041 147.748 199.549 147.291 199.215C146.851 198.881 146.262 198.714 145.524 198.714C144.839 198.714 144.241 198.855 143.731 199.136C143.239 199.417 142.826 199.857 142.492 200.454L140.277 199.611C140.593 199.013 140.989 198.486 141.463 198.029C141.938 197.554 142.509 197.185 143.177 196.921C143.845 196.64 144.628 196.499 145.524 196.499C146.772 196.499 147.809 196.745 148.636 197.237C149.462 197.73 150.077 198.442 150.481 199.373C150.903 200.305 151.106 201.456 151.088 202.828L151.062 210H148.741ZM144.865 210.316C143.3 210.316 142.079 209.965 141.2 209.262C140.338 208.541 139.908 207.548 139.908 206.282C139.908 204.928 140.356 203.9 141.252 203.197C142.166 202.476 143.432 202.116 145.049 202.116H148.715V204.093H145.735C144.522 204.093 143.67 204.287 143.177 204.673C142.685 205.043 142.439 205.561 142.439 206.229C142.439 206.845 142.668 207.328 143.125 207.68C143.599 208.014 144.25 208.181 145.076 208.181C145.797 208.181 146.421 208.031 146.948 207.732C147.475 207.416 147.889 206.976 148.187 206.414C148.486 205.851 148.636 205.21 148.636 204.489H149.506C149.506 206.282 149.119 207.706 148.346 208.761C147.59 209.798 146.429 210.316 144.865 210.316ZM154.242 210V191.542H156.747V207.548L156.616 210H154.242ZM161.072 210.316C159.964 210.316 158.998 210.026 158.171 209.446C157.363 208.866 156.739 208.057 156.299 207.02C155.86 205.983 155.64 204.779 155.64 203.408C155.64 202.019 155.86 200.815 156.299 199.795C156.739 198.758 157.363 197.949 158.171 197.369C158.998 196.789 159.964 196.499 161.072 196.499C162.25 196.499 163.287 196.789 164.183 197.369C165.08 197.949 165.774 198.758 166.267 199.795C166.776 200.815 167.031 202.019 167.031 203.408C167.031 204.779 166.776 205.983 166.267 207.02C165.774 208.057 165.08 208.866 164.183 209.446C163.287 210.026 162.25 210.316 161.072 210.316ZM160.465 208.049C161.257 208.049 161.951 207.855 162.549 207.469C163.146 207.064 163.612 206.519 163.946 205.834C164.298 205.131 164.474 204.322 164.474 203.408C164.474 202.494 164.307 201.694 163.973 201.008C163.638 200.305 163.173 199.76 162.575 199.373C161.977 198.969 161.283 198.767 160.492 198.767C159.771 198.767 159.121 198.969 158.541 199.373C157.978 199.76 157.538 200.305 157.222 201.008C156.906 201.711 156.747 202.511 156.747 203.408C156.747 204.322 156.906 205.131 157.222 205.834C157.538 206.519 157.978 207.064 158.541 207.469C159.103 207.855 159.745 208.049 160.465 208.049ZM169.928 210V196.816H172.433V210H169.928ZM171.194 194.02C170.79 194.02 170.438 193.871 170.139 193.572C169.84 193.256 169.691 192.895 169.691 192.491C169.691 192.069 169.84 191.718 170.139 191.436C170.438 191.137 170.79 190.988 171.194 190.988C171.616 190.988 171.968 191.137 172.249 191.436C172.548 191.718 172.697 192.069 172.697 192.491C172.697 192.895 172.548 193.256 172.249 193.572C171.968 193.871 171.616 194.02 171.194 194.02ZM176.105 210V191.542H178.61V210H176.105ZM182.237 210V196.816H184.742V210H182.237ZM183.503 194.02C183.099 194.02 182.747 193.871 182.448 193.572C182.149 193.256 182 192.895 182 192.491C182 192.069 182.149 191.718 182.448 191.436C182.747 191.137 183.099 190.988 183.503 190.988C183.925 190.988 184.277 191.137 184.558 191.436C184.857 191.718 185.006 192.069 185.006 192.491C185.006 192.895 184.857 193.256 184.558 193.572C184.277 193.871 183.925 194.02 183.503 194.02ZM193.503 210.316C192.185 210.316 191.165 209.982 190.444 209.314C189.723 208.629 189.363 207.653 189.363 206.387V192.702H191.868V206.018C191.868 206.669 192.026 207.17 192.343 207.521C192.677 207.855 193.151 208.022 193.767 208.022C193.943 208.022 194.136 207.987 194.347 207.917C194.558 207.847 194.813 207.706 195.112 207.495L196.061 209.446C195.604 209.745 195.164 209.965 194.742 210.105C194.338 210.246 193.925 210.316 193.503 210.316ZM187.122 198.978V196.816H195.613V198.978H187.122ZM200.142 215.59C199.756 215.59 199.325 215.52 198.85 215.379C198.393 215.239 197.919 215.054 197.426 214.826L198.349 212.769C198.736 212.945 199.07 213.076 199.351 213.164C199.65 213.252 199.888 213.296 200.063 213.296C200.503 213.296 200.872 213.173 201.171 212.927C201.487 212.681 201.742 212.338 201.936 211.899L203.465 208.286L208.159 196.816H210.848L204.599 211.635C204.265 212.444 203.913 213.147 203.544 213.744C203.175 214.342 202.718 214.799 202.173 215.116C201.645 215.432 200.969 215.59 200.142 215.59ZM202.779 210L197.005 196.816H199.668L204.441 208.26L205.205 210H202.779Z" fill="#334897"/>
<path d="M84.2 102C84.2279 94.9894 85.6516 88.0547 88.3881 81.6003C91.1246 75.1459 95.119 69.301 100.138 64.4068C105.158 59.5125 111.101 55.6669 117.623 53.0941C124.144 50.5214 131.113 49.2731 138.122 49.4221C145.131 49.5711 152.04 51.1144 158.446 53.9619C164.852 56.8095 170.627 60.9043 175.434 66.0074C180.241 71.1105 183.983 77.1198 186.443 83.6847C188.903 90.2496 190.03 97.2385 189.76 104.244C187.593 103.652 185.405 103.139 183.2 102.706V102.006C183.209 95.4611 181.824 88.9889 179.136 83.021C176.448 77.0531 172.519 71.7265 167.611 67.3961L167.155 67.8845C165.829 69.3233 163.987 71.2901 161.955 73.4021C157.981 77.5337 153.038 82.4639 149.712 84.9719C149.91 85.4075 150.372 86.1335 151.309 87.3413L152.134 88.3841C154.219 91.0043 157.236 94.7993 158.457 99.4919C158.773 100.711 159.015 101.833 159.183 102.858C156.939 103.351 154.811 103.98 152.8 104.745C152.625 103.536 152.383 102.338 152.074 101.155C151.23 97.9145 149.17 95.2943 147.032 92.5751L146.088 91.3805C145.032 90.0209 143.699 88.2257 143.211 86.2985C142.889 85.1071 142.947 83.8453 143.376 82.6883C143.851 81.4343 144.715 80.4707 145.699 79.7315C148.524 77.6195 153.137 73.0457 157.203 68.8283C159.196 66.7559 161.004 64.8221 162.311 63.4031L162.351 63.3635C154.345 58.1002 144.897 55.4675 135.324 55.8329C136.096 57.2981 136.987 59.1593 137.779 61.2647C139.633 66.1883 141.257 73.2569 138.34 79.4675C135.673 85.1435 131.1 86.6219 127.569 87.5327L126.928 87.6977C123.589 88.5557 121.945 88.9781 120.79 90.7337C119.668 92.4299 119.946 94.5221 121.035 98.0795L121.292 98.8979C121.728 100.29 122.236 101.914 122.5 103.439C122.83 105.326 122.902 107.636 121.754 109.841C120.76 111.861 119.17 113.529 117.2 114.619C115.655 115.402 113.991 115.926 112.276 116.17L111.696 116.269C109.003 116.744 107.439 117.015 105.973 118.586C104.799 119.84 104.125 121.938 103.749 124.796C103.603 125.968 103.489 127.143 103.406 128.321L103.353 128.948C103.261 130.288 103.087 131.622 102.832 132.941L102.805 133.073C109.545 140.492 118.514 145.519 128.361 147.395C127.137 149.348 126.007 151.359 124.968 153.427C113.367 150.712 103.025 144.153 95.6239 134.817C88.2224 125.48 84.1963 113.914 84.2 102ZM129.067 58.1363C128.787 57.6306 128.497 57.1311 128.196 56.6381C120.958 58.0455 114.162 61.1639 108.376 65.7329C102.589 70.3019 97.9797 76.189 94.932 82.9026C91.8843 89.6161 90.4869 96.9614 90.8566 104.325C91.2262 111.689 93.3521 118.857 97.0568 125.232C97.1008 124.801 97.1514 124.365 97.2086 123.925C97.6178 120.843 98.4824 116.936 101.149 114.084C104.198 110.817 107.914 110.204 110.409 109.794L111.121 109.669C112.461 109.431 113.339 109.207 114.045 108.824C114.856 108.349 115.503 107.638 115.9 106.785C116.091 106.428 116.217 105.815 115.999 104.567C115.762 103.367 115.442 102.185 115.042 101.03L114.725 100.02C113.722 96.7397 112.257 91.6907 115.286 87.0971C117.926 83.0909 122.143 82.0679 125.034 81.3617L125.919 81.1439C129.001 80.3519 131.014 79.5467 132.367 76.6559C134.089 72.9863 133.311 68.1287 131.601 63.5879C130.896 61.7091 130.048 59.8866 129.067 58.1363ZM195.905 113.464C195.609 112.986 195.196 112.591 194.706 112.318C194.215 112.044 193.662 111.9 193.1 111.9H193.047L192.876 111.873L192.275 111.761C191.613 111.607 190.955 111.435 190.302 111.246L189.675 111.068C187.838 110.539 185.987 110.059 184.124 109.629C177.738 108.16 171.144 107.82 164.641 108.626C156.708 109.616 150.642 112.302 146.504 116.163C142.346 120.044 140.3 124.981 140.3 130.023C140.304 131.229 140.388 132.373 140.551 133.455C147.481 127.403 156.028 122.513 165.472 118.737C165.876 118.566 166.311 118.476 166.75 118.474C167.189 118.473 167.624 118.558 168.03 118.727C168.435 118.895 168.803 119.143 169.112 119.456C169.42 119.768 169.663 120.139 169.827 120.546C169.99 120.954 170.07 121.39 170.063 121.829C170.056 122.268 169.961 122.702 169.784 123.103C169.607 123.505 169.352 123.868 169.033 124.17C168.714 124.472 168.338 124.707 167.928 124.862C162.888 126.859 158.033 129.295 153.421 132.142C142.518 138.504 135.726 146.675 130.75 156.628C130.39 157.407 130.348 158.295 130.631 159.104C130.915 159.913 131.503 160.58 132.27 160.964C133.037 161.347 133.923 161.417 134.741 161.158C135.558 160.9 136.243 160.333 136.65 159.578C139.185 154.516 142.214 149.969 146.207 145.929C146.339 146.176 146.493 146.446 146.669 146.741C147.63 148.367 148.763 149.885 150.048 151.269C153.117 154.575 158.061 158.1 165.05 158.1C169.353 158.1 172.93 156.998 175.861 155.09C178.765 153.203 180.864 150.635 182.434 147.936C184.87 143.778 186.256 138.828 187.285 135.158C187.545 134.23 187.785 133.4 188.005 132.67C189.098 129.259 190.559 125.978 192.361 122.882C193.14 121.516 193.872 120.328 194.499 119.305L194.611 119.133C195.159 118.242 195.714 117.351 196.05 116.672C196.301 116.169 196.419 115.61 196.394 115.049C196.369 114.488 196.2 113.942 195.905 113.464Z" fill="#334897"/>
</svg>
