<svg width="125" height="124" viewBox="0 0 125 124" fill="none" xmlns="http://www.w3.org/2000/svg">
<path d="M62.0239 62V31M36.1906 72.3333V31M87.8572 82.6667V31M27.9239 15.5H96.1239C99.4126 15.5 102.567 16.8064 104.892 19.1319C107.217 21.4573 108.524 24.6113 108.524 27.9V96.1C108.524 99.3887 107.217 102.543 104.892 104.868C102.567 107.194 99.4126 108.5 96.1239 108.5H27.9239C24.6352 108.5 21.4812 107.194 19.1558 104.868C16.8303 102.543 15.5239 99.3887 15.5239 96.1V27.9C15.5239 26.2716 15.8446 24.6592 16.4678 23.1547C17.0909 21.6503 18.0043 20.2833 19.1558 19.1319C21.4812 16.8064 24.6352 15.5 27.9239 15.5Z" stroke="#363636" stroke-width="3.75399" stroke-miterlimit="10" stroke-linecap="round" stroke-linejoin="round"/>
</svg>
