<svg width="125" height="125" viewBox="0 0 125 125" fill="none" xmlns="http://www.w3.org/2000/svg">
<path d="M47.1645 61.1083L58.9539 49.2879L48.3569 38.6547L42.3744 44.632L38.7199 40.9775L44.6714 35.0002L34.5957 24.9245L22.7753 36.7449L47.1645 61.1083ZM87.6015 101.576L99.4219 89.7559L89.3513 79.6802L83.3741 85.6265L79.7247 81.972L85.6659 75.9947L75.1359 65.4957L63.3414 77.2851L87.6015 101.576ZM37.0733 103.651H20.7984V87.3712L43.479 64.6905L15.6367 36.7501L34.5957 17.791L62.6704 45.7624L85.7278 22.674C86.2956 22.1028 86.8944 21.6916 87.5241 21.4404C88.1538 21.1892 88.8248 21.0636 89.5372 21.0636C90.2495 21.0636 90.9205 21.1892 91.5502 21.4404C92.18 21.6916 92.7804 22.1028 93.3517 22.674L101.776 31.4283C102.347 31.9961 102.743 32.5949 102.963 33.2246C103.183 33.8543 103.291 34.5253 103.288 35.2377C103.285 35.95 103.174 36.6004 102.958 37.1888C102.741 37.7772 102.349 38.3554 101.781 38.9231L78.9143 61.9135L106.664 89.8539L87.6944 108.813L59.754 80.9706L37.0733 103.651ZM25.9601 98.4895H34.8744L85.5626 47.8323L76.6122 38.8922L25.9601 89.5752V98.4895ZM81.1494 43.3313L76.6174 38.8922L85.5575 47.8375L81.1494 43.3313Z" fill="#363636"/>
</svg>
