<svg width="94" height="93" viewBox="0 0 94 93" fill="none" xmlns="http://www.w3.org/2000/svg">
<path d="M44.3697 58.7838L66.9609 81.375C68.8984 83.2506 71.4955 84.2894 74.192 84.2676C76.8885 84.2457 79.4684 83.1648 81.3752 81.258C83.2819 79.3512 84.3628 76.7713 84.3847 74.0748C84.4066 71.3783 83.3677 68.7812 81.4922 66.8438L58.7188 44.0704M44.3697 58.7838L54.0417 47.0425C55.2701 45.5545 56.9092 44.6167 58.7227 44.0742C60.8539 43.4387 63.2293 43.3458 65.4768 43.5318C65.9676 43.5757 66.4636 43.5976 66.9648 43.5976C69.8791 43.5981 72.747 42.8682 75.3065 41.4746C77.866 40.0809 80.0353 38.068 81.6163 35.6199C83.1973 33.1717 84.1395 30.3663 84.3568 27.4601C84.574 24.554 84.0594 21.6397 82.8601 18.9836L70.1656 31.6781C68.0409 31.1887 66.0967 30.1116 64.555 28.5699C63.0133 27.0282 61.9362 25.084 61.4468 22.9594L74.1413 10.2649C71.3702 9.01311 68.3199 8.50773 65.2931 8.7989C62.2664 9.09007 59.3684 10.1677 56.8867 11.9247C54.405 13.6818 52.4259 16.0573 51.1458 18.8154C49.8657 21.5736 49.3292 24.6185 49.5893 27.6481C49.9419 31.8176 49.3142 36.4211 46.0863 39.0794L45.6911 39.4088M44.3697 58.7838L26.3316 80.6891C25.4573 81.7548 24.3696 82.6256 23.1385 83.2455C21.9074 83.8654 20.5602 84.2206 19.1835 84.2884C17.8068 84.3562 16.4311 84.1349 15.1451 83.6389C13.8591 83.1429 12.6911 82.3831 11.7165 81.4085C10.7418 80.4338 9.98203 79.2659 9.48602 77.9798C8.99001 76.6938 8.76876 75.3182 8.83652 73.9415C8.90428 72.5648 9.25955 71.2175 9.87945 69.9864C10.4993 68.7553 11.3701 67.6676 12.4358 66.7934L38.9292 44.9771L23.0146 29.0625H17.5547L8.83593 14.5312L14.6484 8.71875L29.1797 17.4375V22.8974L45.6872 39.4049L38.9253 44.9732M71.3203 71.2031L61.1484 61.0312M18.9768 74.1094H19.0078V74.1404H18.9768V74.1094Z" stroke="#363636" stroke-width="4" stroke-linecap="round" stroke-linejoin="round"/>
</svg>
