<svg width="26" height="26" viewBox="0 0 26 26" fill="none" xmlns="http://www.w3.org/2000/svg">
<path d="M25.0004 25L18.9255 18.9251M18.9255 18.9251C19.9005 17.9501 20.674 16.7925 21.2017 15.5186C21.7294 14.2446 22.001 12.8792 22.001 11.5003C22.001 10.1214 21.7294 8.75597 21.2017 7.48201C20.674 6.20805 19.9005 5.05051 18.9255 4.07547C17.9505 3.10042 16.7929 2.32698 15.519 1.79929C14.245 1.2716 12.8796 1 11.5007 1C10.1217 1 8.75633 1.2716 7.48238 1.79929C6.20842 2.32698 5.05088 3.10042 4.07583 4.07547C2.10664 6.04466 1.00037 8.71545 1.00037 11.5003C1.00037 14.2852 2.10664 16.9559 4.07583 18.9251C6.04502 20.8943 8.71581 22.0006 11.5007 22.0006C14.2855 22.0006 16.9563 20.8943 18.9255 18.9251Z" stroke="#334897" stroke-width="2" stroke-linecap="round" stroke-linejoin="round"/>
</svg>
